<svg width="1200" height="750" viewBox="0 0 1200 750" fill="none" xmlns="http://www.w3.org/2000/svg">
<g clip-path="url(#clip0_1_2)">
<rect width="1200" height="750" fill="#F5F8FC"/>
<rect width="1200" height="65" fill="#1553A4"/>
<rect y="65" width="1200" height="3" fill="#3B8FE3"/>
<rect x="0.25" y="68.25" width="1199.5" height="51.5" fill="#EDF4FD" stroke="#B5D4F4" stroke-width="0.5"/>
<rect x="24.25" y="83.25" width="59.5" height="21.5" rx="10.75" fill="#B5D4F4" fill-opacity="0.45" stroke="#B5D4F4" stroke-width="0.5"/>
<rect x="100.25" y="83.25" width="95.5" height="21.5" rx="10.75" fill="white" stroke="#B5D4F4" stroke-width="0.5"/>
<rect x="212.25" y="83.25" width="95.5" height="21.5" rx="10.75" fill="white" stroke="#B5D4F4" stroke-width="0.5"/>
<rect x="324.25" y="83.25" width="95.5" height="21.5" rx="10.75" fill="white" stroke="#B5D4F4" stroke-width="0.5"/>
<rect x="436.25" y="83.25" width="95.5" height="21.5" rx="10.75" fill="white" stroke="#B5D4F4" stroke-width="0.5"/>
<rect x="24.25" y="140.25" width="275.5" height="99.5" rx="4.75" fill="white" stroke="#D4E6F6" stroke-width="0.5"/>
<rect x="24" y="140" width="276" height="3" rx="1.5" fill="#1553A4"/>
<rect x="316.25" y="140.25" width="275.5" height="99.5" rx="4.75" fill="white" stroke="#D4E6F6" stroke-width="0.5"/>
<rect x="316" y="140" width="276" height="3" rx="1.5" fill="#1553A4"/>
<rect x="608.25" y="140.25" width="275.5" height="99.5" rx="4.75" fill="white" stroke="#D4E6F6" stroke-width="0.5"/>
<rect x="608" y="140" width="276" height="3" rx="1.5" fill="#1553A4"/>
<rect x="900.25" y="140.25" width="275.5" height="99.5" rx="4.75" fill="white" stroke="#D4E6F6" stroke-width="0.5"/>
<rect x="900" y="140" width="276" height="3" rx="1.5" fill="#1553A4"/>
<rect x="24.25" y="258.25" width="783.5" height="467.5" rx="4.75" fill="white" stroke="#D4E6F6" stroke-width="0.5"/>
<rect x="824.25" y="258.25" width="351.5" height="225.5" rx="4.75" fill="white" stroke="#D4E6F6" stroke-width="0.5"/>
<rect x="824.25" y="500.25" width="351.5" height="225.5" rx="4.75" fill="white" stroke="#D4E6F6" stroke-width="0.5"/>
<rect y="738" width="1200" height="12" fill="#EDF4FD"/>
</g>
<defs>
<clipPath id="clip0_1_2">
<rect width="1200" height="750" fill="white"/>
</clipPath>
</defs>
</svg>
